<svg xmlns="http://www.w3.org/2000/svg" width="900" height="463" viewBox="0 0 900 463" role="img" aria-labelledby="title desc">
<title id="title">Variação em 24h: Championship no EA FC em 18/06: altas e baixas — PS</title>
<desc id="desc">Gráfico gerado a partir da tabela publicada neste artigo.</desc>
<rect width="100%" height="100%" rx="20" fill="#0f172a"/>
<text x="28" y="42" fill="#f8fafc" font-family="system-ui,sans-serif" font-size="23" font-weight="700">Variação em 24h</text>
<text x="28" y="70" fill="#94a3b8" font-family="system-ui,sans-serif" font-size="15">Dados do recorte publicado no artigo</text>
<text x="28" y="117" fill="#e2e8f0" font-family="system-ui,sans-serif" font-size="16">James McClean</text>
<rect x="285" y="95" width="480" height="28" rx="7" fill="#22c55e"/>
<text x="775" y="116" fill="#f8fafc" font-family="system-ui,sans-serif" font-size="15" font-weight="700">+21.4%</text>
<text x="28" y="175" fill="#e2e8f0" font-family="system-ui,sans-serif" font-size="16">Finn Azaz</text>
<rect x="285" y="153" width="298" height="28" rx="7" fill="#22c55e"/>
<text x="593" y="174" fill="#f8fafc" font-family="system-ui,sans-serif" font-size="15" font-weight="700">+13.3%</text>
<text x="28" y="233" fill="#e2e8f0" font-family="system-ui,sans-serif" font-size="16">Nicolas Madsen</text>
<rect x="285" y="211" width="294" height="28" rx="7" fill="#22c55e"/>
<text x="589" y="232" fill="#f8fafc" font-family="system-ui,sans-serif" font-size="15" font-weight="700">+13.1%</text>
<text x="28" y="291" fill="#e2e8f0" font-family="system-ui,sans-serif" font-size="16">Jaden Philogene</text>
<rect x="285" y="269" width="240" height="28" rx="7" fill="#22c55e"/>
<text x="535" y="290" fill="#f8fafc" font-family="system-ui,sans-serif" font-size="15" font-weight="700">+10.7%</text>
<text x="28" y="349" fill="#e2e8f0" font-family="system-ui,sans-serif" font-size="16">Caleb Taylor</text>
<rect x="285" y="327" width="213" height="28" rx="7" fill="#22c55e"/>
<text x="508" y="348" fill="#f8fafc" font-family="system-ui,sans-serif" font-size="15" font-weight="700">+9.5%</text>
<text x="28" y="407" fill="#e2e8f0" font-family="system-ui,sans-serif" font-size="16">Tristan Crama</text>
<rect x="285" y="385" width="119" height="28" rx="7" fill="#22c55e"/>
<text x="414" y="406" fill="#f8fafc" font-family="system-ui,sans-serif" font-size="15" font-weight="700">+5.3%</text>
</svg>
